<?xml version="1.0" standalone="no"?>
<!DOCTYPE svg PUBLIC "-//W3C//DTD SVG 20010904//EN"
 "http://www.w3.org/TR/2001/REC-SVG-20010904/DTD/svg10.dtd">
<svg version="1.0" xmlns="http://www.w3.org/2000/svg"
 width="600.000000pt" height="600.000000pt" viewBox="0 0 600.000000 600.000000"
 preserveAspectRatio="xMidYMid meet">
<metadata>
Created by potrace 1.14, written by Peter Selinger 2001-2017
</metadata>
<g transform="translate(0.000000,600.000000) scale(0.100000,-0.100000)"
fill="#000000" stroke="none">
<path d="M4117 4510 c-101 -26 -207 -100 -302 -211 -23 -28 -78 -107 -121
-176 -44 -70 -94 -142 -111 -161 -32 -33 -34 -34 -88 -27 -45 5 -68 2 -120
-17 -68 -24 -81 -38 -65 -68 20 -37 142 -90 208 -90 120 0 191 69 347 335 67
114 172 217 253 248 78 31 183 17 224 -29 27 -31 78 -131 98 -192 48 -147 68
-280 100 -657 18 -203 36 -377 56 -527 l6 -46 -103 -32 c-358 -108 -553 -177
-574 -203 -5 -7 -64 -35 -130 -62 -66 -26 -147 -61 -180 -77 l-60 -28 50 6
c43 5 195 42 405 99 30 8 67 15 83 15 30 0 196 54 385 126 126 48 142 51 142
30 0 -7 7 -27 15 -42 8 -16 15 -42 15 -59 0 -16 9 -86 20 -154 10 -68 17 -128
14 -133 -3 -4 -85 -8 -182 -8 -216 0 -587 -16 -700 -30 -96 -12 -140 -26 -126
-40 22 -22 174 -31 589 -36 242 -3 441 -7 443 -8 1 -2 18 -95 37 -207 19 -112
41 -235 49 -274 8 -38 19 -101 25 -140 18 -108 79 -388 113 -509 16 -59 26
-112 21 -115 -4 -4 -28 -13 -53 -20 -106 -30 -120 -35 -120 -43 0 -4 -7 -8
-15 -8 -8 0 -15 -5 -15 -11 0 -5 4 -8 9 -4 5 3 12 1 16 -5 3 -5 3 -10 -2 -11
-67 -5 -93 -19 -93 -50 0 -11 -4 -19 -10 -19 -5 0 -10 -9 -10 -20 0 -11 -6
-19 -12 -17 -7 1 -14 -8 -16 -20 -2 -14 -8 -20 -18 -16 -8 3 -14 -1 -14 -9 0
-7 -9 -19 -20 -26 -11 -7 -20 -21 -20 -32 0 -11 -4 -20 -9 -20 -10 0 -27 -39
-23 -52 1 -5 -3 -8 -9 -8 -6 0 -8 -9 -4 -20 4 -13 2 -20 -6 -20 -7 0 -5 -7 7
-16 16 -13 16 -15 2 -10 -12 3 -18 0 -18 -9 0 -8 -4 -15 -10 -15 -5 0 -10 -8
-10 -18 0 -10 -4 -22 -10 -28 -8 -8 -23 -136 -22 -201 0 -13 -4 -21 -8 -18 -8
5 0 -30 15 -67 4 -11 3 -18 -4 -18 -6 0 -11 -4 -11 -10 0 -5 6 -10 14 -10 9 0
12 -8 8 -25 -2 -15 0 -25 7 -25 6 0 11 -7 11 -15 0 -8 5 -15 10 -15 6 0 10 -8
8 -17 -2 -10 2 -17 9 -16 7 2 10 -3 7 -11 -7 -19 16 -32 27 -15 7 11 9 10 9
-3 0 -17 21 -18 289 -18 l290 0 4 43 4 42 1 -42 2 -43 115 0 115 0 0 30 c0
100 -89 552 -186 950 -123 500 -264 1178 -264 1266 0 30 3 32 43 38 23 3 97 5
164 5 76 -1 140 4 168 12 96 28 46 41 -193 48 -146 5 -195 9 -201 20 -8 12
-49 255 -72 425 -8 63 -8 81 3 91 20 18 114 54 187 71 63 14 171 69 171 87 0
14 -112 -10 -175 -39 -57 -26 -190 -62 -199 -53 -13 12 -30 136 -71 499 -47
421 -59 492 -112 651 -94 289 -207 407 -397 415 -45 2 -98 -1 -119 -6z m673
-3620 c0 -5 -5 -10 -11 -10 -5 0 -7 5 -4 10 3 6 8 10 11 10 2 0 4 -4 4 -10z
m105 0 c3 -5 1 -10 -4 -10 -6 0 -11 5 -11 10 0 6 2 10 4 10 3 0 8 -4 11 -10z
m113 -196 c-3 -14 -5 -12 -10 9 -3 19 -2 25 4 19 6 -6 8 -18 6 -28z m-8 -44
c0 -5 -4 -10 -10 -10 -5 0 -10 5 -10 10 0 6 5 10 10 10 6 0 10 -4 10 -10z
m-446 -77 c-3 -26 -7 -50 -10 -52 -6 -6 -3 57 3 82 9 34 13 16 7 -30z m-50
-77 c-3 -9 -10 -16 -15 -16 -6 0 -5 9 1 21 13 24 24 20 14 -5z m36 -1 c0 -8
-4 -15 -10 -15 -5 0 -7 7 -4 15 4 8 8 15 10 15 2 0 4 -7 4 -15z m507 -7 c-3
-8 -6 -5 -6 6 -1 11 2 17 5 13 3 -3 4 -12 1 -19z m33 -155 c0 -7 -6 -13 -14
-13 -9 0 -12 8 -8 26 3 19 7 22 13 12 5 -7 9 -19 9 -25z m-600 -53 c0 -5 -5
-10 -11 -10 -5 0 -7 5 -4 10 3 6 8 10 11 10 2 0 4 -4 4 -10z m580 -31 c0 -5
-4 -9 -10 -9 -5 0 -10 7 -10 16 0 8 5 12 10 9 6 -3 10 -10 10 -16z"/>
<path d="M1622 4264 c-25 -9 -72 -43 -108 -77 -52 -48 -74 -79 -110 -153 -95
-195 -115 -424 -89 -1026 l6 -118 -25 0 c-23 0 -286 77 -473 139 -135 45 -187
40 -100 -10 45 -25 173 -84 210 -95 12 -3 45 -16 72 -29 52 -23 89 -36 164
-55 25 -7 69 -23 99 -36 l54 -24 -4 -189 c-2 -109 -7 -194 -13 -199 -10 -10
-347 -46 -568 -61 -128 -9 -163 -19 -140 -42 24 -24 396 -38 605 -24 88 6 96
5 100 -11 5 -29 -33 -473 -97 -1124 -37 -387 -65 -833 -65 -1057 l0 -73 65 0
65 0 0 163 c0 183 18 611 29 672 6 33 11 40 28 38 13 -2 23 4 26 15 4 16 5 16
6 0 1 -14 10 -18 41 -18 22 0 40 -4 40 -10 0 -6 33 -10 80 -10 44 0 80 4 80 9
0 4 33 11 73 13 69 5 74 7 118 50 25 25 54 56 63 69 9 13 20 24 24 24 14 0 42
33 42 49 0 8 5 18 11 22 8 5 8 9 -1 14 -9 6 -6 10 9 15 14 4 21 15 21 30 0 13
5 27 10 30 6 3 10 31 10 61 0 30 -4 53 -9 50 -4 -3 -6 -18 -4 -33 l4 -28 -15
25 c-9 16 -11 27 -4 31 5 3 10 10 11 15 1 5 5 8 10 6 4 -1 7 7 7 18 0 11 -4
20 -8 20 -5 0 -17 7 -28 16 -16 13 -16 15 -1 10 9 -3 17 -4 17 -2 0 16 -57
109 -71 117 -10 5 -16 15 -13 23 6 15 -40 56 -62 56 -8 0 -14 4 -14 10 0 5 8
6 18 3 11 -4 6 4 -13 25 -22 24 -32 28 -42 20 -10 -8 -12 -7 -7 6 6 15 -4 21
-33 17 -7 -1 -13 3 -13 9 0 5 -7 10 -15 10 -8 0 -15 5 -15 10 0 6 -9 10 -19
10 -11 0 -23 5 -26 10 -8 13 -45 13 -45 0 0 -5 -7 -10 -16 -10 -13 0 -14 3 -5
14 10 11 5 15 -26 19 -21 3 -54 8 -73 11 -24 4 -30 3 -20 -4 13 -8 13 -12 -3
-27 -17 -17 -18 -17 -11 0 7 20 -6 23 -25 5 -11 -11 -13 -10 -7 0 4 7 -1 27
-12 45 -18 29 -19 41 -12 122 5 50 12 158 16 240 3 83 11 156 16 163 7 8 38
12 88 12 162 0 616 39 685 59 l30 8 -30 12 c-33 14 -368 30 -612 31 l-163 0 0
169 c0 94 3 172 8 174 4 2 158 -46 342 -107 359 -119 556 -169 535 -136 -20
33 -435 211 -745 320 -130 46 -135 49 -141 79 -15 71 -21 430 -10 566 32 387
117 599 270 667 98 45 181 -2 393 -221 78 -81 154 -154 168 -162 17 -9 60 -13
130 -13 97 0 110 2 173 32 58 27 68 35 65 54 -2 16 -14 26 -43 34 -46 14 -174
16 -255 5 -30 -5 -59 -7 -65 -4 -5 2 -25 33 -44 69 -70 135 -201 273 -315 331
-65 33 -187 41 -254 17z m-107 -2564 c3 -5 2 -10 -4 -10 -5 0 -13 5 -16 10 -3
6 -2 10 4 10 5 0 13 -4 16 -10z m-95 -34 c0 -8 -4 -18 -10 -21 -5 -3 -10 3
-10 14 0 12 5 21 10 21 6 0 10 -6 10 -14z m317 -42 c-3 -3 -12 -4 -19 -1 -8 3
-5 6 6 6 11 1 17 -2 13 -5z m-299 -114 c0 -32 -1 -33 -8 -10 -4 14 -8 43 -8
65 0 38 1 39 8 10 4 -16 8 -46 8 -65z m335 30 c3 -11 1 -20 -4 -20 -5 0 -9 9
-9 20 0 11 2 20 4 20 2 0 6 -9 9 -20z m54 -6 c-3 -3 -12 -4 -19 -1 -8 3 -5 6
6 6 11 1 17 -2 13 -5z m38 -83 c-3 -6 -11 -11 -16 -11 -5 0 -4 6 3 14 14 16
24 13 13 -3z m-425 -23 c0 -17 -20 -47 -20 -31 0 6 -3 18 -6 27 -4 11 -1 16
10 16 9 0 16 -6 16 -12z m-47 -48 c3 -11 1 -20 -4 -20 -5 0 -9 9 -9 20 0 11 2
20 4 20 2 0 6 -9 9 -20z m534 -82 c-3 -8 -6 -5 -6 6 -1 11 2 17 5 13 3 -3 4
-12 1 -19z"/>
<path d="M4205 4212 c-43 -28 -72 -58 -101 -104 -21 -33 -27 -58 -33 -141 -11
-135 2 -187 50 -212 117 -61 244 101 242 310 0 61 -20 122 -47 144 -26 22 -79
23 -111 3z m43 -160 c4 -64 -21 -155 -50 -184 -20 -20 -22 -20 -35 -3 -29 40
-7 204 30 230 38 26 52 15 55 -43z"/>
<path d="M1678 4047 c-24 -22 -48 -97 -48 -145 0 -21 25 -94 45 -133 33 -63
94 -77 138 -31 47 49 59 128 32 218 -30 102 -109 145 -167 91z m77 -90 c34
-53 27 -165 -10 -151 -17 7 -55 82 -55 110 0 22 26 64 40 64 5 0 16 -10 25
-23z"/>
<path d="M2793 4009 c-42 -12 -100 -67 -109 -104 -11 -45 6 -60 64 -59 41 1
51 -2 55 -17 6 -24 65 -26 107 -4 36 19 96 91 105 128 6 24 5 27 -19 27 -15 0
-43 -7 -63 -15 -50 -21 -55 -19 -47 20 6 34 6 35 -27 34 -19 0 -48 -5 -66 -10z"/>
<path d="M3195 3963 c-58 -14 -154 -59 -182 -86 -40 -38 -44 -74 -8 -83 38 -9
165 43 165 68 0 6 14 26 30 45 17 18 30 40 30 48 0 16 -2 16 -35 8z"/>
<path d="M3493 3060 c-12 -5 -29 -20 -39 -35 -14 -22 -15 -30 -3 -56 14 -34
62 -69 95 -69 34 0 64 31 71 72 5 32 1 41 -25 68 -31 30 -59 36 -99 20z"/>
<path d="M2360 3023 c-55 -20 -67 -78 -23 -113 32 -25 69 -20 96 12 46 55 -5
126 -73 101z"/>
<path d="M2914 2906 c-51 -23 -59 -70 -20 -121 21 -27 25 -45 27 -111 3 -90 0
-92 -73 -70 -143 43 -138 -132 6 -206 88 -46 187 -20 269 71 42 47 47 81 16
112 -19 19 -28 21 -80 15 l-59 -7 1 58 c1 47 6 66 29 98 42 60 48 105 18 139
-28 33 -88 43 -134 22z"/>
</g>
</svg>
